<svg xmlns="http://www.w3.org/2000/svg" viewBox="0 0 26 26" height="26" width="26"><title>FmIcnFillLightPoiWebcam.svg</title><rect fill="none" x="0" y="0" width="26" height="26"></rect><path fill="rgba(0,0,0,0.8)" transform="translate(1 1)" d="M19,11a7,7,0,1,0-7.5,7v1H8v1h8V19H12.5V18A7,7,0,0,0,19,11ZM9,11a3,3,0,1,1,3,3A3,3,0,0,1,9,11Zm3,1a1,1,0,1,1,1-1A1,1,0,0,1,12,12Z" style="stroke-linejoin:round;stroke-miterlimit:4;" stroke="rgba(0,0,0,0.8)" stroke-width="2"></path><path fill="#ffffff" transform="translate(1 1)" d="M19,11a7,7,0,1,0-7.5,7v1H8v1h8V19H12.5V18A7,7,0,0,0,19,11ZM9,11a3,3,0,1,1,3,3A3,3,0,0,1,9,11Zm3,1a1,1,0,1,1,1-1A1,1,0,0,1,12,12Z"></path></svg>