<svg xmlns="http://www.w3.org/2000/svg" viewBox="0 0 26 26" height="26" width="26"><title>FmIcnFillLightPoiTransceiver.svg</title><rect fill="none" x="0" y="0" width="26" height="26"></rect><path fill="rgba(0,0,0,0.8)" transform="translate(1 1)" d="M13,9H11a3,3,0,0,0-3,3v6a3,3,0,0,0,3,3h2a3,3,0,0,0,3-3V12A3,3,0,0,0,13,9ZM12,19a1,1,0,1,1,1-1A1,1,0,0,1,12,19Zm-2-5,2-3,2,3Zm8.41-7.82-.94.36a6,6,0,0,0-11,0l-.94-.36a7,7,0,0,1,12.82,0ZM10.27,8l-.94-.34a3,3,0,0,1,5.33,0L13.73,8a2,2,0,0,0-3.46,0Zm6.26-1.09-.94.37a4,4,0,0,0-7.2,0l-.94-.36a5,5,0,0,1,9.07,0Z" style="stroke-linejoin:round;stroke-miterlimit:4;" stroke="rgba(0,0,0,0.8)" stroke-width="2"></path><path fill="#ffffff" transform="translate(1 1)" d="M13,9H11a3,3,0,0,0-3,3v6a3,3,0,0,0,3,3h2a3,3,0,0,0,3-3V12A3,3,0,0,0,13,9ZM12,19a1,1,0,1,1,1-1A1,1,0,0,1,12,19Zm-2-5,2-3,2,3Zm8.41-7.82-.94.36a6,6,0,0,0-11,0l-.94-.36a7,7,0,0,1,12.82,0ZM10.27,8l-.94-.34a3,3,0,0,1,5.33,0L13.73,8a2,2,0,0,0-3.46,0Zm6.26-1.09-.94.37a4,4,0,0,0-7.2,0l-.94-.36a5,5,0,0,1,9.07,0Z"></path></svg>