<svg xmlns="http://www.w3.org/2000/svg" viewBox="0 0 30 30" height="30" width="30"><title>FmIcnFillLightLiftFree.svg</title><rect fill="none" x="0" y="0" width="30" height="30"></rect><path fill="rgba(0,0,0,0.8)" transform="translate(3 3)" d="M7.63,5,2,12l5.63,7H22V5ZM6,13a1,1,0,1,1,1-1A1,1,0,0,1,6,13Zm6-4H10v1h2v3H11v1H10V13H9V12h2V11H9V8h1V7h1V8h1Zm7,6a2,2,0,0,1-2,2H15a2,2,0,0,1-2-2V9a2,2,0,0,1,2-2h2a2,2,0,0,1,2,2ZM15,9h2v6H15Z" style="stroke-linejoin:round;stroke-miterlimit:4;" stroke="rgba(0,0,0,0.8)" stroke-width="2"></path><path fill="#ffffff" transform="translate(3 3)" d="M7.63,5,2,12l5.63,7H22V5ZM6,13a1,1,0,1,1,1-1A1,1,0,0,1,6,13Zm6-4H10v1h2v3H11v1H10V13H9V12h2V11H9V8h1V7h1V8h1Zm7,6a2,2,0,0,1-2,2H15a2,2,0,0,1-2-2V9a2,2,0,0,1,2-2h2a2,2,0,0,1,2,2ZM15,9h2v6H15Z"></path></svg>