<svg xmlns="http://www.w3.org/2000/svg" viewBox="0 0 30 30" height="30" width="30"><title>FmIcnFillLightLiftCage.svg</title><rect fill="none" x="0" y="0" width="30" height="30"></rect><path fill="rgba(0,0,0,0.8)" transform="translate(3 3)" d="M13,9V5.64l7-2.58V2L4,7.89V9L12,6V8.31L8,10V21h9V13H9V10.66Zm2,5h1v4H15Zm-2,0h1v4H13Zm-2,0h1v4H11Zm-1,0v4H9V14Z" style="stroke-linejoin:round;stroke-miterlimit:4;" stroke="rgba(0,0,0,0.8)" stroke-width="2"></path><path fill="#ffffff" transform="translate(3 3)" d="M13,9V5.64l7-2.58V2L4,7.89V9L12,6V8.31L8,10V21h9V13H9V10.66Zm2,5h1v4H15Zm-2,0h1v4H13Zm-2,0h1v4H11Zm-1,0v4H9V14Z"></path></svg>