<svg xmlns="http://www.w3.org/2000/svg" width="24" height="24" viewBox="0 0 24 24"><title>FmIcnMapPisteUnknown</title><path d="M12,1A11,11,0,1,0,23,12,11,11,0,0,0,12,1Z" style="fill:#777"/><rect width="24" height="24" style="fill:none"/><path d="M10.5,9a1.5,1.5,0,0,1,3,0A1.46,1.46,0,0,1,13,10.06l-1.18,1.28A4.52,4.52,0,0,0,10.5,14.5V15h3v0a2.92,2.92,0,0,1,1.05-2.42l.91-.9a3.66,3.66,0,0,0,1-2.54A4.5,4.5,0,1,0,7.5,9v.5h3Z" style="fill:#fff"/><rect x="10.5" y="16.5" width="3" height="3" style="fill:#fff"/></svg>