<svg xmlns="http://www.w3.org/2000/svg" viewBox="0 0 26 26" height="26" width="26"><title>FmIcnFillLightPoiTrailHead.svg</title><rect fill="none" x="0" y="0" width="26" height="26"></rect><path fill="rgba(0,0,0,0.8)" transform="translate(1 1)" d="M4,5V15H6v5H8V15h8v5h2V15h2V5Zm3,8a1,1,0,1,1,1-1A1,1,0,0,1,7,13Zm8-4.56a1.92,1.92,0,0,0-1.54.21,2.11,2.11,0,0,0-1,1.48,3.1,3.1,0,0,1-1.43,2.06A2.85,2.85,0,0,1,9,12.57v-1a1.94,1.94,0,0,0,1.54-.21,2.11,2.11,0,0,0,1-1.48A3.1,3.1,0,0,1,13,7.8a2.83,2.83,0,0,1,2-.37ZM17,9a1,1,0,1,1,1-1A1,1,0,0,1,17,9Z" style="stroke-linejoin:round;stroke-miterlimit:4;" stroke="rgba(0,0,0,0.8)" stroke-width="2"></path><path fill="#ffffff" transform="translate(1 1)" d="M4,5V15H6v5H8V15h8v5h2V15h2V5Zm3,8a1,1,0,1,1,1-1A1,1,0,0,1,7,13Zm8-4.56a1.92,1.92,0,0,0-1.54.21,2.11,2.11,0,0,0-1,1.48,3.1,3.1,0,0,1-1.43,2.06A2.85,2.85,0,0,1,9,12.57v-1a1.94,1.94,0,0,0,1.54-.21,2.11,2.11,0,0,0,1-1.48A3.1,3.1,0,0,1,13,7.8a2.83,2.83,0,0,1,2-.37ZM17,9a1,1,0,1,1,1-1A1,1,0,0,1,17,9Z"></path></svg>