<svg xmlns="http://www.w3.org/2000/svg" viewBox="0 0 30 30" height="30" width="30"><title>FmIcnFillLightLiftRope.svg</title><rect fill="none" x="0" y="0" width="30" height="30"></rect><path fill="rgba(0,0,0,0.8)" transform="translate(3 3)" d="M21.29,15.38l.71.7-1.6,1.63-16.14,4-.24-1,15.86-4ZM8,6A1.5,1.5,0,1,0,6.5,4.5,1.5,1.5,0,0,0,8,6ZM22,8V9L9.52,11.51,13,14v3.5L11,18V15L8,13a5.94,5.94,0,0,1-.5-1.08l-4.5.9v-1L7.24,11A21.51,21.51,0,0,1,7,7H9l5,2.6ZM11.29,10.14,9,9a5.81,5.81,0,0,0,.17,1.53Z" style="stroke-linejoin:round;stroke-miterlimit:4;" stroke="rgba(0,0,0,0.8)" stroke-width="2"></path><path fill="#ffffff" transform="translate(3 3)" d="M21.29,15.38l.71.7-1.6,1.63-16.14,4-.24-1,15.86-4ZM8,6A1.5,1.5,0,1,0,6.5,4.5,1.5,1.5,0,0,0,8,6ZM22,8V9L9.52,11.51,13,14v3.5L11,18V15L8,13a5.94,5.94,0,0,1-.5-1.08l-4.5.9v-1L7.24,11A21.51,21.51,0,0,1,7,7H9l5,2.6ZM11.29,10.14,9,9a5.81,5.81,0,0,0,.17,1.53Z"></path></svg>