<svg xmlns="http://www.w3.org/2000/svg" viewBox="0 0 26 26" height="26" width="26"><title>FmIcnFillLightPoiInfo.svg</title><rect fill="none" x="0" y="0" width="26" height="26"></rect><path fill="rgba(0,0,0,0.8)" transform="translate(1 1)" d="M12,4a8,8,0,1,0,8,8A8,8,0,0,0,12,4Zm1,13H11V11h2Zm0-8H11V7h2Z" style="stroke-linejoin:round;stroke-miterlimit:4;" stroke="rgba(0,0,0,0.8)" stroke-width="2"></path><path fill="#ffffff" transform="translate(1 1)" d="M12,4a8,8,0,1,0,8,8A8,8,0,0,0,12,4Zm1,13H11V11h2Zm0-8H11V7h2Z"></path></svg>