<svg xmlns="http://www.w3.org/2000/svg" width="12" height="12" viewBox="0 0 12 12"><title>FmIcnFillLightPoiPark</title><path d="M2,2C3,2,6,2,7.5,3.5c1.27,1.27,1.58,2.78.93,3.93L10,9,9,10,7.43,8.43a2.56,2.56,0,0,1-1.27.33A3.84,3.84,0,0,1,3.5,7.5C2,6,2,3,2,2M2,1H1V2C1,3.09,1,6.41,2.79,8.21A4.85,4.85,0,0,0,6.16,9.76a3.63,3.63,0,0,0,1-.15l1.09,1.1.71.7.71-.7,1-1,.7-.71-.7-.71L9.61,7.2a4.44,4.44,0,0,0-1.4-4.41C6.41,1,3.09,1,2,1Z" style="fill:#0d1a00"/><path d="M2,2C3,2,6,2,7.5,3.5c1.27,1.27,1.58,2.78.93,3.93L10,9,9,10,7.43,8.43a2.56,2.56,0,0,1-1.27.33A3.84,3.84,0,0,1,3.5,7.5C2,6,2,3,2,2" style="fill:#e0f3ce"/><rect width="12" height="12" style="fill:none"/></svg>