<svg xmlns="http://www.w3.org/2000/svg" viewBox="0 0 26 26" height="26" width="26"><title>FmIcnFillLightPoiMug.svg</title><rect fill="none" x="0" y="0" width="26" height="26"></rect><path fill="rgba(0,0,0,0.8)" transform="translate(1 1)" d="M19,7H5v7a5,5,0,0,0,5,5h2a5,5,0,0,0,5-5h2a2,2,0,0,0,2-2V9A2,2,0,0,0,19,7Zm0,5H17V9h2Z" style="stroke-linejoin:round;stroke-miterlimit:4;" stroke="rgba(0,0,0,0.8)" stroke-width="2"></path><path fill="#ffffff" transform="translate(1 1)" d="M19,7H5v7a5,5,0,0,0,5,5h2a5,5,0,0,0,5-5h2a2,2,0,0,0,2-2V9A2,2,0,0,0,19,7Zm0,5H17V9h2Z"></path></svg>