<svg xmlns="http://www.w3.org/2000/svg" width="32" height="32" viewBox="0 0 32 32"><title>FmIcnSavedPointSelected</title><path d="M16,27S8,19,8,13.43A8.23,8.23,0,0,1,16,5a8.23,8.23,0,0,1,8,8.43C24,19,16,27,16,27Z" style="fill:#f35"/><rect width="32" height="32" style="fill:none"/><rect width="32" height="32" style="fill:none"/><path d="M16,18s-2.55-2.55-2.55-4.32a2.55,2.55,0,1,1,5.1,0C18.55,15.45,16,18,16,18Z" style="fill:#f5f5f5"/><path d="M16,5a8.23,8.23,0,0,1,8,8.43C24,19,16,27,16,27S8,19,8,13.43A8.23,8.23,0,0,1,16,5m0-2A10.24,10.24,0,0,0,6,13.43c0,6.22,7.71,14.11,8.59,15L16,29.83l1.41-1.42c.88-.87,8.59-8.76,8.59-15A10.24,10.24,0,0,0,16,3Z" style="fill:#651421"/></svg>