<svg xmlns="http://www.w3.org/2000/svg" viewBox="0 0 26 26" height="26" width="26"><title>FmIcnFillLightPoiSnowPark.svg</title><rect fill="none" x="0" y="0" width="26" height="26"></rect><path fill="rgba(0,0,0,0.8)" transform="translate(1 1)" d="M21,8.15,11.92,22.27l-.84-.54,3.53-5.49-3.1-3.74L7,15s-2.36-4.14.19-7.48A5.61,5.61,0,0,1,5.36,5L3,12,2,11.67,5,3S7,3,7,3a4,4,0,0,0,3,3.77c1.64.48,3.38.16,4-.77l4.25,2.69-.54.84L15,7.81A5.26,5.26,0,0,1,11.54,9a7.41,7.41,0,0,1-2.07-.3c-.18-.05-.34-.13-.51-.19A3.81,3.81,0,0,0,8.14,12L12,10l3.75,4.47L20,7.85V6h1ZM10.5,6A1.5,1.5,0,1,0,9,4.5,1.5,1.5,0,0,0,10.5,6ZM20,14c0,3-2,6-5,6v2h7V14Z" style="stroke-linejoin:round;stroke-miterlimit:4;" stroke="rgba(0,0,0,0.8)" stroke-width="2"></path><path fill="#ffffff" transform="translate(1 1)" d="M21,8.15,11.92,22.27l-.84-.54,3.53-5.49-3.1-3.74L7,15s-2.36-4.14.19-7.48A5.61,5.61,0,0,1,5.36,5L3,12,2,11.67,5,3S7,3,7,3a4,4,0,0,0,3,3.77c1.64.48,3.38.16,4-.77l4.25,2.69-.54.84L15,7.81A5.26,5.26,0,0,1,11.54,9a7.41,7.41,0,0,1-2.07-.3c-.18-.05-.34-.13-.51-.19A3.81,3.81,0,0,0,8.14,12L12,10l3.75,4.47L20,7.85V6h1ZM10.5,6A1.5,1.5,0,1,0,9,4.5,1.5,1.5,0,0,0,10.5,6ZM20,14c0,3-2,6-5,6v2h7V14Z"></path></svg>