<svg xmlns="http://www.w3.org/2000/svg" viewBox="0 0 26 26" height="26" width="26"><title>FmIcnFillLightPoiConnection.svg</title><rect fill="none" x="0" y="0" width="26" height="26"></rect><path fill="rgba(0,0,0,0.8)" transform="translate(1 1)" d="M17.5,16a1.49,1.49,0,0,0-.64.15l-1.71-1.71a4,4,0,0,0,0-4.88l1.71-1.71a1.51,1.51,0,1,0-.71-.71L14.44,8.85a4,4,0,0,0-4.88,0L7.85,7.14a1.51,1.51,0,1,0-.71.71L8.85,9.56a4,4,0,0,0,0,4.88L7.14,16.15a1.51,1.51,0,1,0,.71.71l1.71-1.71a4,4,0,0,0,4.88,0l1.71,1.71A1.5,1.5,0,1,0,17.5,16Zm-4.44-2.94a1.5,1.5,0,1,1,0-2.12A1.5,1.5,0,0,1,13.06,13.06Z" style="stroke-linejoin:round;stroke-miterlimit:4;" stroke="rgba(0,0,0,0.8)" stroke-width="2"></path><path fill="#ffffff" transform="translate(1 1)" d="M17.5,16a1.49,1.49,0,0,0-.64.15l-1.71-1.71a4,4,0,0,0,0-4.88l1.71-1.71a1.51,1.51,0,1,0-.71-.71L14.44,8.85a4,4,0,0,0-4.88,0L7.85,7.14a1.51,1.51,0,1,0-.71.71L8.85,9.56a4,4,0,0,0,0,4.88L7.14,16.15a1.51,1.51,0,1,0,.71.71l1.71-1.71a4,4,0,0,0,4.88,0l1.71,1.71A1.5,1.5,0,1,0,17.5,16Zm-4.44-2.94a1.5,1.5,0,1,1,0-2.12A1.5,1.5,0,0,1,13.06,13.06Z"></path></svg>