<svg xmlns="http://www.w3.org/2000/svg" width="24" height="24" viewBox="0 0 24 24"><title>FmIcnMapAdventureFinishPoint</title><path d="M12,2A10,10,0,1,1,2,12,10,10,0,0,1,12,2m0-2A12,12,0,1,0,24,12,12,12,0,0,0,12,0Z" style="fill:#fff"/><rect width="24" height="24" style="fill:none"/><path d="M8.67,8.67H2.58A10,10,0,0,1,8.67,2.58Zm0,6.66h6.66V8.67H8.67ZM21.42,8.67a10,10,0,0,0-6.09-6.09V8.67ZM2.58,15.33a10,10,0,0,0,6.09,6.09V15.33Zm12.75,6.09a10,10,0,0,0,6.09-6.09H15.33Z" style="fill:#333"/><path d="M15.33,15.33v6.09a9.85,9.85,0,0,1-6.66,0V15.33ZM8.67,8.67H2.58a9.85,9.85,0,0,0,0,6.66H8.67Zm6.66,0V2.58a9.85,9.85,0,0,0-6.66,0V8.67Zm6.09,0H15.33v6.66h6.09a9.85,9.85,0,0,0,0-6.66Z" style="fill:#fff"/></svg>