<svg xmlns="http://www.w3.org/2000/svg" width="38" height="32" viewBox="0 0 38 32"><title>FmIcnMapFreerideExtreme</title><circle cx="16" cy="16" r="15" style="fill:#0a5166"/><path d="M16,2A14,14,0,1,1,2,16,14,14,0,0,1,16,2m0-2A16,16,0,1,0,32,16,16,16,0,0,0,16,0Z" style="fill:#1acafe"/><path d="M18.9,25.5,4.7,16.4l.6-.8,13.8,8.9H21v1ZM12,23a.47.47,0,0,1,.44-.5h.06a.47.47,0,0,1,.5.44V23a.48.48,0,0,1-.45.5H12.5a.47.47,0,0,1-.5-.44Zm-2-.7a.86.86,0,0,1,.8-.8.8.8,0,0,1,0,1.6A.86.86,0,0,1,10,22.3Zm-3-.8a1,1,0,0,1,.89-1H8a1,1,0,0,1,1,.89v.11a1,1,0,0,1-.89,1H8a1,1,0,0,1-1-.89ZM5,21a.47.47,0,0,1,.44-.5H5.5a.47.47,0,0,1,.5.44V21a.47.47,0,0,1-.44.5H5.5a.47.47,0,0,1-.5-.44Zm1-1.7a.86.86,0,0,1,.8-.8.8.8,0,0,1,0,1.6A.86.86,0,0,1,6,19.3Zm4.5-1.4L16,16.7a6.06,6.06,0,0,0-2.5-3.2l.5-2a12.35,12.35,0,0,1,6-1l1,1a3.08,3.08,0,0,0,3,3v2H19c-.1-.3-.2-.7-.3-1H21a5.22,5.22,0,0,1-2-3,6.05,6.05,0,0,0-3,.5c1.2,1.3,2.2,2.9,2,4.5l-1,1-4,1ZM4,18a.47.47,0,0,1,.44-.5H4.5a.47.47,0,0,1,.5.44V18a.47.47,0,0,1-.44.5H4.5a.47.47,0,0,1-.5-.44Zm5-1.5v-1h5.2a1,1,0,0,1,.4.5l-2,.5Zm13.37-4h-.6a3.15,3.15,0,0,1-.22-1,2.5,2.5,0,0,1,5-.06h-.49a2,2,0,0,1-2,2h0A1.93,1.93,0,0,1,22.37,12.51Zm.68-1a1,1,0,0,0,1,1h0a1,1,0,0,0,1-1v0Zm-7.55-4a5.77,5.77,0,0,1,2-.5c.8,0,2.5.2,3,1S20,9.5,20,9.5H19a13.24,13.24,0,0,0-4,.6s-1-2.1.5-2.6Z" style="fill:#c5f1fe"/><rect x="3" y="4" width="24" height="24" style="fill:none"/><circle cx="32.5" cy="26.5" r="5"/><path d="M32.5,22A4.5,4.5,0,1,1,28,26.5,4.49,4.49,0,0,1,32.5,22m0-1A5.5,5.5,0,1,0,38,26.5,5.51,5.51,0,0,0,32.5,21Z" style="fill:#1acafe"/></svg>