<svg xmlns="http://www.w3.org/2000/svg" viewBox="0 0 30 30" height="30" width="30"><title>FmIcnFillLightLiftDragTbar.svg</title><rect fill="none" x="0" y="0" width="30" height="30"></rect><path fill="rgba(0,0,0,0.8)" transform="translate(3 3)" d="M7,7h6.82l2.4-4h1.17L12,12l-.82-.58L12.62,9H9a5.11,5.11,0,0,0,.54,2.55L13,14v3.5L11,18V15L8,13C7.12,11.52,7,10,7,7Zm0,7.57,3,2V15.4L7.51,13.74Zm12.93,2.24L4,20.78l.24,1,16.14-4L22,16.08l-.71-.7ZM20.5,10V7h-2v3H17v2h5V10ZM8,6A1.5,1.5,0,1,0,6.5,4.5,1.5,1.5,0,0,0,8,6Z" style="stroke-linejoin:round;stroke-miterlimit:4;" stroke="rgba(0,0,0,0.8)" stroke-width="2"></path><path fill="#ffffff" transform="translate(3 3)" d="M7,7h6.82l2.4-4h1.17L12,12l-.82-.58L12.62,9H9a5.11,5.11,0,0,0,.54,2.55L13,14v3.5L11,18V15L8,13C7.12,11.52,7,10,7,7Zm0,7.57,3,2V15.4L7.51,13.74Zm12.93,2.24L4,20.78l.24,1,16.14-4L22,16.08l-.71-.7ZM20.5,10V7h-2v3H17v2h5V10ZM8,6A1.5,1.5,0,1,0,6.5,4.5,1.5,1.5,0,0,0,8,6Z"></path></svg>