<svg xmlns="http://www.w3.org/2000/svg" viewBox="0 0 26 26" height="26" width="26"><title>FmIcnFillLightPoiCocktail.svg</title><rect fill="none" x="0" y="0" width="26" height="26"></rect><path fill="rgba(0,0,0,0.8)" transform="translate(1 1)" d="M12.5,14l6.61-9H4.89l6.61,9v4H8v1h8V18H12.5ZM11,8.5A1.5,1.5,0,1,1,12.5,10,1.5,1.5,0,0,1,11,8.5Z" style="stroke-linejoin:round;stroke-miterlimit:4;" stroke="rgba(0,0,0,0.8)" stroke-width="2"></path><path fill="#ffffff" transform="translate(1 1)" d="M12.5,14l6.61-9H4.89l6.61,9v4H8v1h8V18H12.5ZM11,8.5A1.5,1.5,0,1,1,12.5,10,1.5,1.5,0,0,1,11,8.5Z"></path></svg>