<svg xmlns="http://www.w3.org/2000/svg" viewBox="0 0 30 30" height="30" width="30"><title>FmIcnFillLightLiftCarpet.svg</title><rect fill="none" x="0" y="0" width="30" height="30"></rect><path fill="rgba(0,0,0,0.8)" transform="translate(3 3)" d="M11,16V11.79A8,8,0,0,1,10,7h2c0,2,0,3,1,4.3v4.2ZM11,6A1.5,1.5,0,1,0,9.5,4.5,1.5,1.5,0,0,0,11,6Zm9.4,9.63L22,14l-.71-.7-1.4,1.43L4,18.7l.24,1ZM3,22l19-4.75v-1L3,21Z" style="stroke-linejoin:round;stroke-miterlimit:4;" stroke="rgba(0,0,0,0.8)" stroke-width="2"></path><path fill="#ffffff" transform="translate(3 3)" d="M11,16V11.79A8,8,0,0,1,10,7h2c0,2,0,3,1,4.3v4.2ZM11,6A1.5,1.5,0,1,0,9.5,4.5,1.5,1.5,0,0,0,11,6Zm9.4,9.63L22,14l-.71-.7-1.4,1.43L4,18.7l.24,1ZM3,22l19-4.75v-1L3,21Z"></path></svg>