<svg xmlns="http://www.w3.org/2000/svg" viewBox="0 0 30 30" height="30" width="30"><title>FmIcnFillLightLiftDragDifficult.svg</title><rect fill="none" x="0" y="0" width="30" height="30"></rect><path fill="rgba(0,0,0,0.8)" transform="translate(3 3)" d="M4,7H10.8l2.4-4h1.17L8.94,12l-.82-.58L9.6,9H6a5.11,5.11,0,0,0,.54,2.55L10,14l1.87,1.87-1.55,1.45L8,15,5,13C4.1,11.52,4,10,4,7Zm0,7.57,3,2V15.4L4.49,13.74ZM6.48,4.5A1.5,1.5,0,1,0,5,6,1.5,1.5,0,0,0,6.48,4.5ZM22,11l0,11H10Zm-2,9H18v1h2Zm0-4H18v3h2Zm1-7.54-1-.27-.53,1.93-12,11.15L8.2,22,20.37,10.66Z" style="stroke-linejoin:round;stroke-miterlimit:4;" stroke="rgba(0,0,0,0.8)" stroke-width="2"></path><path fill="#ffffff" transform="translate(3 3)" d="M4,7H10.8l2.4-4h1.17L8.94,12l-.82-.58L9.6,9H6a5.11,5.11,0,0,0,.54,2.55L10,14l1.87,1.87-1.55,1.45L8,15,5,13C4.1,11.52,4,10,4,7Zm0,7.57,3,2V15.4L4.49,13.74ZM6.48,4.5A1.5,1.5,0,1,0,5,6,1.5,1.5,0,0,0,6.48,4.5ZM22,11l0,11H10Zm-2,9H18v1h2Zm0-4H18v3h2Zm1-7.54-1-.27-.53,1.93-12,11.15L8.2,22,20.37,10.66Z"></path></svg>