<svg xmlns="http://www.w3.org/2000/svg" viewBox="0 0 30 30" height="30" width="30"><title>FmIcnFillLightLiftFunitel.svg</title><rect fill="none" x="0" y="0" width="30" height="30"></rect><path fill="rgba(0,0,0,0.8)" transform="translate(3 3)" d="M21,5V4H3V5h7V6H3V7h7V9H9v2H6v9H18V11H15V9H14V7h7V6H14V5ZM10,10h4v1H10Zm1.5,5H7V12h4.5ZM17,12v3H12.5V12ZM13,9H11V7h2Zm0-3H11V5h2Z" style="stroke-linejoin:round;stroke-miterlimit:4;" stroke="rgba(0,0,0,0.8)" stroke-width="2"></path><path fill="#ffffff" transform="translate(3 3)" d="M21,5V4H3V5h7V6H3V7h7V9H9v2H6v9H18V11H15V9H14V7h7V6H14V5ZM10,10h4v1H10Zm1.5,5H7V12h4.5ZM17,12v3H12.5V12ZM13,9H11V7h2Zm0-3H11V5h2Z"></path></svg>