<svg xmlns="http://www.w3.org/2000/svg" viewBox="0 0 30 30" height="30" width="30"><title>FmIcnFillLightLiftDragButton.svg</title><rect fill="none" x="0" y="0" width="30" height="30"></rect><path fill="rgba(0,0,0,0.8)" transform="translate(3 3)" d="M17,9.5A2.5,2.5,0,1,1,19.5,12,2.5,2.5,0,0,1,17,9.5ZM8,13l3,2v3l2-.5V14L9.54,11.55A5.11,5.11,0,0,1,9,9h3.62l-1.48,2.47L12,12l5.43-9H16.22l-2.4,4H7C7,10,7.12,11.52,8,13ZM7,14.57l3,2V15.4L7.51,13.74ZM8,6A1.5,1.5,0,1,0,6.5,4.5,1.5,1.5,0,0,0,8,6ZM19.88,16.81,4,20.78l.24,1,16.14-4L22,16.08l-.71-.7Z" style="stroke-linejoin:round;stroke-miterlimit:4;" stroke="rgba(0,0,0,0.8)" stroke-width="2"></path><path fill="#ffffff" transform="translate(3 3)" d="M17,9.5A2.5,2.5,0,1,1,19.5,12,2.5,2.5,0,0,1,17,9.5ZM8,13l3,2v3l2-.5V14L9.54,11.55A5.11,5.11,0,0,1,9,9h3.62l-1.48,2.47L12,12l5.43-9H16.22l-2.4,4H7C7,10,7.12,11.52,8,13ZM7,14.57l3,2V15.4L7.51,13.74ZM8,6A1.5,1.5,0,1,0,6.5,4.5,1.5,1.5,0,0,0,8,6ZM19.88,16.81,4,20.78l.24,1,16.14-4L22,16.08l-.71-.7Z"></path></svg>