<svg xmlns="http://www.w3.org/2000/svg" width="24" height="24" viewBox="0 0 24 24"><title>FmIcnFillPoiHut</title><rect width="24" height="24" style="fill:none"/><path d="M7,6C7,5,6,4,6,3H8C8,4,9,5,9,6Zm5-1L9,8V7H7v3L4,13H6v7h4V16h4v4h4V13h2Z" style="fill:#fff"/><g style="opacity:0.8"><path d="M8,3C8,4,9,5,9,6H7C7,5,6,4,6,3H8m4,2,8,8H18v7H14V16H10v4H6V13H4l3-3V7H9V8l3-3M9,2H5V3a4.31,4.31,0,0,0,.61,2A3.12,3.12,0,0,1,6,6V9.59l-2.71,2.7L1.59,14H5v7h6V17h2v4h6V14h3.41l-1.7-1.71-8-8L12,3.59l-.71.7L10,5.61a5,5,0,0,0-.58-1.56A3.12,3.12,0,0,1,9,3V2Z"/></g></svg>