<svg xmlns="http://www.w3.org/2000/svg" viewBox="0 0 26 26" height="26" width="26"><title>FmIcnFillLightPoiFirstaid.svg</title><rect fill="none" x="0" y="0" width="26" height="26"></rect><path fill="rgba(0,0,0,0.8)" transform="translate(1 1)" d="M17,8V5H7V8H4V19H20V8Zm-1.5,6.5H13V17H11V14.5H8.5v-2H11V10h2v2.5h2.5ZM8.13,8V6h7.75V8Z" style="stroke-linejoin:round;stroke-miterlimit:4;" stroke="rgba(0,0,0,0.8)" stroke-width="2"></path><path fill="#ffffff" transform="translate(1 1)" d="M17,8V5H7V8H4V19H20V8Zm-1.5,6.5H13V17H11V14.5H8.5v-2H11V10h2v2.5h2.5ZM8.13,8V6h7.75V8Z"></path></svg>