<svg xmlns="http://www.w3.org/2000/svg" viewBox="0 0 26 26" height="26" width="26"><title>FmIcnFillLightPoiBus.svg</title><rect fill="none" x="0" y="0" width="26" height="26"></rect><path fill="rgba(0,0,0,0.8)" transform="translate(1 1)" d="M5,4V20H6v1H8V20h8v1h2V20h1V4ZM9,6h6V7H9ZM8,18a1,1,0,1,1,1-1A1,1,0,0,1,8,18Zm8,0a1,1,0,1,1,1-1A1,1,0,0,1,16,18Zm2-4H6V9H18Z" style="stroke-linejoin:round;stroke-miterlimit:4;" stroke="rgba(0,0,0,0.8)" stroke-width="2"></path><path fill="#ffffff" transform="translate(1 1)" d="M5,4V20H6v1H8V20h8v1h2V20h1V4ZM9,6h6V7H9ZM8,18a1,1,0,1,1,1-1A1,1,0,0,1,8,18Zm8,0a1,1,0,1,1,1-1A1,1,0,0,1,16,18Zm2-4H6V9H18Z"></path></svg>