<svg xmlns="http://www.w3.org/2000/svg" viewBox="0 0 26 26" height="26" width="26"><title>FmIcnFillLightPoiViewpoint.svg</title><rect fill="none" x="0" y="0" width="26" height="26"></rect><path fill="rgba(0,0,0,0.8)" transform="translate(1 1)" d="M2.19,17,9,15,2.19,13A10.39,10.39,0,0,0,2.19,17Zm19.61-4L15,15l6.81,2A10.39,10.39,0,0,0,21.81,13ZM17.52,6.65,14,13l6.35-3.52A10.39,10.39,0,0,0,17.52,6.65ZM14,5.19A8.75,8.75,0,0,0,12,5a8.75,8.75,0,0,0-2,.19L12,12ZM3.65,9.48,10,13,6.48,6.65A10.39,10.39,0,0,0,3.65,9.48ZM13,15a1,1,0,1,1-1-1A1,1,0,0,1,13,15Z" style="stroke-linejoin:round;stroke-miterlimit:4;" stroke="rgba(0,0,0,0.8)" stroke-width="2"></path><path fill="#ffffff" transform="translate(1 1)" d="M2.19,17,9,15,2.19,13A10.39,10.39,0,0,0,2.19,17Zm19.61-4L15,15l6.81,2A10.39,10.39,0,0,0,21.81,13ZM17.52,6.65,14,13l6.35-3.52A10.39,10.39,0,0,0,17.52,6.65ZM14,5.19A8.75,8.75,0,0,0,12,5a8.75,8.75,0,0,0-2,.19L12,12ZM3.65,9.48,10,13,6.48,6.65A10.39,10.39,0,0,0,3.65,9.48ZM13,15a1,1,0,1,1-1-1A1,1,0,0,1,13,15Z"></path></svg>