<svg xmlns="http://www.w3.org/2000/svg" width="32" height="32" viewBox="0 0 32 32"><title>FmIcnWebcamMarkerSelected</title><g id="labels"><path d="M16,27S8,19,8,13.4322A8.2341,8.2341,0,0,1,16,5a8.2341,8.2341,0,0,1,8,8.4322C24,19,16,27,16,27Z"/><path d="M16,5a8.2341,8.2341,0,0,1,8,8.4322C24,19,16,27,16,27S8,19,8,13.4322A8.2341,8.2341,0,0,1,16,5m0-2A10.2346,10.2346,0,0,0,6,13.4322c0,6.2167,7.707,14.1032,8.5858,14.982L16,29.8284l1.4142-1.4142C18.293,27.5354,26,19.6489,26,13.4322A10.2346,10.2346,0,0,0,16,3Z" fill="#fff"/><path d="M16.4762,19.4286h2.8571v.9524H12.6667v-.9524h2.8571v-.972a5.7143,5.7143,0,1,1,.9524,0Zm1.9048-6.6667A2.381,2.381,0,1,0,16,15.1429,2.3808,2.3808,0,0,0,18.381,12.7619Zm-1.4286,0A.9524.9524,0,1,1,16,11.81.9526.9526,0,0,1,16.9524,12.7619Z" fill="#fff" fill-rule="evenodd"/></g></svg>