<svg xmlns="http://www.w3.org/2000/svg" width="32" height="42" viewBox="0 0 32 42"><title>FmIcnMapSportclimbingSevere</title><path d="M15.33,39.75C14.75,39.2,1,26.18,1,16a15,15,0,0,1,30,0c0,9.63-13.7,23.17-14.28,23.74l-.69.67Z" style="fill:#651c3d"/><path d="M16,2A14,14,0,0,1,30,16c0,9.32-14,23-14,23S2,25.87,2,16A14,14,0,0,1,16,2m0-2A16,16,0,0,0,0,16C0,26.61,14.05,39.92,14.65,40.48l1.4,1.32,1.37-1.35C18,39.87,32,26.05,32,16A16,16,0,0,0,16,0Z" style="fill:#ff73b2"/><rect x="4" y="4" width="24" height="24" style="fill:none"/><rect x="4" y="4" width="24" height="24" style="fill:none"/><path d="M12,9.43a2,2,0,1,0,0,2.83A2,2,0,0,0,12,9.43Zm-.7,2.12a1,1,0,0,1-1.42,0,1,1,0,0,1,0-1.41,1,1,0,0,1,1.42,0A1,1,0,0,1,11.26,11.55ZM18.69,19l1,2.48-1.06,3.18L16.92,20l-5.08-6.49h0a2.9,2.9,0,0,0,.83-.58,2.87,2.87,0,0,0,.6-.88c.83.5,2.27.14,3.29-.88l.4-.4,1.57,1.25-.78.75a5.66,5.66,0,0,1-2.83,1.43l1,1.2,3.69-1.23,2.36,2.37-.77,2.05L19,16.5l-1.83.61Zm-3.93,2.8A5.53,5.53,0,0,1,13,27.46l-.71-.71a4.56,4.56,0,0,0,1.46-4.82A11.2,11.2,0,0,1,13.59,20a3.87,3.87,0,0,1,.59-1.9l.67.86a2.58,2.58,0,0,0-.26,1A11.93,11.93,0,0,0,14.76,21.77Zm9.29-5.33L21.5,24.08V26h-1l0-2.16L23,16.56,21.6,14.31,19,11.74l-.48-3.38-4.74-1.9.38-.92,5.26,2.1L20,11.26l2.46,2.48Z" style="fill:#ffd1e5"/><rect x="4" y="4" width="24" height="24" style="fill:none"/></svg>