<svg xmlns="http://www.w3.org/2000/svg" viewBox="0 0 26 26" height="26" width="26"><title>FmIcnFillLightPoiToilets.svg</title><rect fill="none" x="0" y="0" width="26" height="26"></rect><path fill="rgba(0,0,0,0.8)" transform="translate(1 1)" d="M15,5.5A1.5,1.5,0,1,1,16.5,7,1.5,1.5,0,0,1,15,5.5ZM8,7A1.5,1.5,0,1,0,6.5,5.5,1.5,1.5,0,0,0,8,7ZM9,8H7a2,2,0,0,0-2,2v4H6.5v6h3V14H11V10A2,2,0,0,0,9,8Zm9.41,1.41a2,2,0,0,0-3.82,0L13,15h2v5h3V15h2Z" style="stroke-linejoin:round;stroke-miterlimit:4;" stroke="rgba(0,0,0,0.8)" stroke-width="2"></path><path fill="#ffffff" transform="translate(1 1)" d="M15,5.5A1.5,1.5,0,1,1,16.5,7,1.5,1.5,0,0,1,15,5.5ZM8,7A1.5,1.5,0,1,0,6.5,5.5,1.5,1.5,0,0,0,8,7ZM9,8H7a2,2,0,0,0-2,2v4H6.5v6h3V14H11V10A2,2,0,0,0,9,8Zm9.41,1.41a2,2,0,0,0-3.82,0L13,15h2v5h3V15h2Z"></path></svg>