<svg xmlns="http://www.w3.org/2000/svg" width="32" height="32" viewBox="0 0 32 32"><title>FmIcnMapAdventureFinishPointSelected</title><path d="M16,0A16,16,0,1,0,32,16,16,16,0,0,0,16,0Z" style="fill:#fff;opacity:0.6"/><path d="M16,6A10,10,0,1,1,6,16,10,10,0,0,1,16,6m0-2A12,12,0,1,0,28,16,12,12,0,0,0,16,4Z" style="fill:#fff"/><rect x="4" y="4" width="24" height="24" style="fill:none"/><path d="M12.67,12.67H6.58a10,10,0,0,1,6.09-6.09Zm0,6.66h6.66V12.67H12.67Zm12.75-6.66a10,10,0,0,0-6.09-6.09v6.09ZM6.58,19.33a10,10,0,0,0,6.09,6.09V19.33Zm12.75,6.09a10,10,0,0,0,6.09-6.09H19.33Z" style="fill:#333"/><path d="M19.33,19.33v6.09a9.85,9.85,0,0,1-6.66,0V19.33Zm-6.66-6.66H6.58a9.85,9.85,0,0,0,0,6.66h6.09Zm6.66,0V6.58a9.85,9.85,0,0,0-6.66,0v6.09Zm6.09,0H19.33v6.66h6.09a9.85,9.85,0,0,0,0-6.66Z" style="fill:#fff"/></svg>