<svg xmlns="http://www.w3.org/2000/svg" width="38" height="32" viewBox="0 0 38 32"><title>FmIcnMapSailingEasy</title><rect x="25" y="20" width="12" height="12" style="fill:none"/><circle cx="16" cy="16" r="15" style="fill:#371b84"/><path d="M16,2A14,14,0,1,1,2,16,14,14,0,0,1,16,2m0-2A16,16,0,1,0,32,16,16,16,0,0,0,16,0Z" style="fill:#6b36ff"/><path d="M24.85,21.64A1.77,1.77,0,0,0,26,22v1a3.86,3.86,0,0,1-2.18-.64A1.89,1.89,0,0,0,22.67,22a1.77,1.77,0,0,0-1.15.36,4,4,0,0,1-4.36,0A1.89,1.89,0,0,0,16,22a1.77,1.77,0,0,0-1.15.36,4,4,0,0,1-4.37,0A1.83,1.83,0,0,0,9.34,22a1.83,1.83,0,0,0-1.15.36A3.87,3.87,0,0,1,6,23V22a1.77,1.77,0,0,0,1.15-.36A3.87,3.87,0,0,1,9.34,21a3.86,3.86,0,0,1,2.18.64,1.77,1.77,0,0,0,1.15.36,1.77,1.77,0,0,0,1.15-.36,4,4,0,0,1,4.37,0,1.89,1.89,0,0,0,1.15.36,1.83,1.83,0,0,0,1.15-.36,4,4,0,0,1,4.36,0Zm-15.52-2a3.86,3.86,0,0,1,2.18.64,1.75,1.75,0,0,0,1.15.36,1.77,1.77,0,0,0,1.15-.36,4,4,0,0,1,4.37,0,1.89,1.89,0,0,0,1.15.36,1.83,1.83,0,0,0,1.15-.36,3.86,3.86,0,0,1,2.18-.64,3.62,3.62,0,0,1,1.38.24l2-1.44H6l1.15,1.84A3.89,3.89,0,0,1,9.33,19.6Zm-.66-2.2,8-12.8V6.73L23.33,17.4Zm8-1h4.82L16.67,8.64Z" style="fill:#f5f2ff"/><rect x="4" y="1" width="24" height="24" style="fill:none"/><circle cx="32.5" cy="26.5" r="5" style="fill:#00ab39"/><path d="M32.5,22A4.5,4.5,0,1,1,28,26.5,4.49,4.49,0,0,1,32.5,22m0-1A5.5,5.5,0,1,0,38,26.5,5.51,5.51,0,0,0,32.5,21Z" style="fill:#6229ff"/></svg>