<svg xmlns="http://www.w3.org/2000/svg" viewBox="0 0 26 26" height="26" width="26"><title>FmIcnFillLightPoiMeetingpoint.svg</title><rect fill="none" x="0" y="0" width="26" height="26"></rect><path fill="rgba(0,0,0,0.8)" transform="translate(1 1)" d="M12,10a2,2,0,1,1-2,2A2,2,0,0,1,12,10Zm3-4H13.5V3h-3V6H9l3,3ZM9,18h1.5v3h3V18H15l-3-3Zm0-6L6,9v1.5H3v3H6V15Zm9-1.5V9l-3,3,3,3V13.5h3v-3Z" style="stroke-linejoin:round;stroke-miterlimit:4;" stroke="rgba(0,0,0,0.8)" stroke-width="2"></path><path fill="#ffffff" transform="translate(1 1)" d="M12,10a2,2,0,1,1-2,2A2,2,0,0,1,12,10Zm3-4H13.5V3h-3V6H9l3,3ZM9,18h1.5v3h3V18H15l-3-3Zm0-6L6,9v1.5H3v3H6V15Zm9-1.5V9l-3,3,3,3V13.5h3v-3Z"></path></svg>