<svg xmlns="http://www.w3.org/2000/svg" width="32" height="32" viewBox="0 0 32 32"><title>FmIcnMapRouteScrubber</title><path d="M24.49,7.51A12,12,0,1,0,28,16,12,12,0,0,0,24.49,7.51Zm-4.95,12A5,5,0,1,1,21,16,5,5,0,0,1,19.54,19.54Z" style="fill:#f35;fill-opacity:0.75"/><path d="M16,4A12,12,0,1,1,7.51,7.51,12,12,0,0,1,16,4m0-1A13,13,0,0,0,6.81,25.19,13,13,0,1,0,25.19,6.81,12.89,12.89,0,0,0,16,3Z" style="fill:#fff"/><path d="M16,13a3,3,0,1,1-2.12.88A3,3,0,0,1,16,13m0-2a5,5,0,1,0,3.54,1.46A5,5,0,0,0,16,11Z" style="fill:#fff"/></svg>