<svg xmlns="http://www.w3.org/2000/svg" viewBox="0 0 26 26" height="26" width="26"><title>FmIcnFillLightPoiInfoBoard.svg</title><rect fill="none" x="0" y="0" width="26" height="26"></rect><path fill="rgba(0,0,0,0.8)" transform="translate(1 1)" d="M4,4V17H6v4H8V17h8v4h2V17h2V4Zm8,12a5.5,5.5,0,1,1,5.5-5.5A5.5,5.5,0,0,1,12,16Zm-1-6h2v4H11Zm2-1H11V7h2Z" style="stroke-linejoin:round;stroke-miterlimit:4;" stroke="rgba(0,0,0,0.8)" stroke-width="2"></path><path fill="#ffffff" transform="translate(1 1)" d="M4,4V17H6v4H8V17h8v4h2V17h2V4Zm8,12a5.5,5.5,0,1,1,5.5-5.5A5.5,5.5,0,0,1,12,16Zm-1-6h2v4H11Zm2-1H11V7h2Z"></path></svg>