<svg xmlns="http://www.w3.org/2000/svg" viewBox="0 0 26 26" height="26" width="26"><title>FmIcnFillLightPoiRestaurant.svg</title><rect fill="none" x="0" y="0" width="26" height="26"></rect><path fill="rgba(0,0,0,0.8)" transform="translate(1 1)" d="M18,3V21H16V13H14V5.5A2.5,2.5,0,0,1,16.5,3ZM10,7H9V3H8V7H7V3H6V7.51A2.49,2.49,0,0,0,8,10v0L7,21h3L9,10V9.95A2.5,2.5,0,0,0,11,7.5V3H10Z" style="stroke-linejoin:round;stroke-miterlimit:4;" stroke="rgba(0,0,0,0.8)" stroke-width="2"></path><path fill="#ffffff" transform="translate(1 1)" d="M18,3V21H16V13H14V5.5A2.5,2.5,0,0,1,16.5,3ZM10,7H9V3H8V7H7V3H6V7.51A2.49,2.49,0,0,0,8,10v0L7,21h3L9,10V9.95A2.5,2.5,0,0,0,11,7.5V3H10Z"></path></svg>