<svg xmlns="http://www.w3.org/2000/svg" viewBox="0 0 26 26" height="26" width="26"><title>FmIcnFillLightPoiWifi.svg</title><rect fill="none" x="0" y="0" width="26" height="26"></rect><path fill="rgba(0,0,0,0.8)" transform="translate(1 1)" d="M14.3,17.21,12,20,9.68,17.23a2.8,2.8,0,0,1,4.62,0ZM5.81,12.5l1.92,2.37a5.81,5.81,0,0,1,8.53,0L18.2,12.5a8.92,8.92,0,0,0-12.39,0ZM12,4A14.57,14.57,0,0,0,2,8l2,2.29a11.34,11.34,0,0,1,16,0L22,8A14.48,14.48,0,0,0,12,4Z" style="stroke-linejoin:round;stroke-miterlimit:4;" stroke="rgba(0,0,0,0.8)" stroke-width="2"></path><path fill="#ffffff" transform="translate(1 1)" d="M14.3,17.21,12,20,9.68,17.23a2.8,2.8,0,0,1,4.62,0ZM5.81,12.5l1.92,2.37a5.81,5.81,0,0,1,8.53,0L18.2,12.5a8.92,8.92,0,0,0-12.39,0ZM12,4A14.57,14.57,0,0,0,2,8l2,2.29a11.34,11.34,0,0,1,16,0L22,8A14.48,14.48,0,0,0,12,4Z"></path></svg>