<svg xmlns="http://www.w3.org/2000/svg" width="48" height="48" viewBox="0 0 48 48"><title>FmIcnSearchResultMarker</title><rect width="48" height="48" style="fill:none"/><path d="M24,8A12,12,0,0,0,12,20c0,8.83,12,20,12,20S36,28.33,36,20A12,12,0,0,0,24,8Z" style="fill:#333"/><path d="M24,8A12,12,0,0,0,12,20c0,8.83,12,20,12,20S36,28.33,36,20A12,12,0,0,0,24,8Z" style="fill:#f5f5f5"/><rect width="48" height="48" style="fill:none"/><path d="M23.32,40.73C22.82,40.26,11,29.16,11,20a13,13,0,0,1,26,0c0,8.66-11.8,20.23-12.3,20.72l-.68.66Z" style="fill:#f5f5f5"/><path d="M24,8A12,12,0,0,1,36,20c0,8.33-12,20-12,20S12,28.83,12,20A12,12,0,0,1,24,8m0-2A14,14,0,0,0,10,20c0,9.59,12.12,21,12.64,21.46L24,42.76l1.36-1.33a66.5,66.5,0,0,0,6.2-7.1C35.84,28.72,38,23.9,38,20A14,14,0,0,0,24,6Z"/><path d="M24,17.25A3.75,3.75,0,0,0,20.25,21c0,2.76,3.75,6.25,3.75,6.25S27.75,23.6,27.75,21A3.75,3.75,0,0,0,24,17.25Z"/></svg>