<svg xmlns="http://www.w3.org/2000/svg" width="24" height="24" viewBox="0 0 24 24"><title>FmIcnFillPoiViewpoint</title><path d="M15,12.42l5.31-2.94a10.58,10.58,0,0,0-2.83-2.83L14.58,12A5,5,0,0,1,15,12.42Z" style="fill:#fff"/><g style="opacity:0.8"><path d="M17.52,6.65a10.58,10.58,0,0,1,2.83,2.83L15,12.42a5,5,0,0,0-.46-.46l2.94-5.31m-.38-1.38-.5.9L13.7,11.48l-.4.71.63.53c.12.11.24.23.35.35l.53.63.71-.4,5.31-2.94.9-.5L21.21,9A11.46,11.46,0,0,0,18,5.79l-.89-.52Z"/></g><path d="M12,11a2.85,2.85,0,0,1,.29,0L14,5.19A8.75,8.75,0,0,0,12,5a8.75,8.75,0,0,0-2,.19L11.71,11A2.85,2.85,0,0,1,12,11Z" style="fill:#fff"/><g style="opacity:0.8"><path d="M12,5a8.75,8.75,0,0,1,2,.19L12.29,11A2.85,2.85,0,0,0,12,11a2.85,2.85,0,0,0-.29,0L10,5.19A8.75,8.75,0,0,1,12,5m0-1a9.78,9.78,0,0,0-2.25.23l-1,.26.29,1,1.72,5.83.22.77.81-.05L12,12H12l.18,0,.81.05.22-.77L15,5.48l.29-1-1-.26A9.78,9.78,0,0,0,12,4Z"/></g><path d="M21.81,13,16,14.71A2.85,2.85,0,0,1,16,15a2.85,2.85,0,0,1,0,.29L21.81,17A10.76,10.76,0,0,0,21.81,13Z" style="fill:#fff"/><g style="opacity:0.8"><path d="M21.81,13a10.76,10.76,0,0,1,0,4L16,15.29A2.85,2.85,0,0,0,16,15a2.85,2.85,0,0,0,0-.29L21.81,13m.7-1.25-1,.29-5.83,1.72-.77.22.05.81A1.1,1.1,0,0,1,15,15v0h0a1.1,1.1,0,0,1,0,.18l-.05.81.77.22L21.52,18l1,.29.26-1a11.36,11.36,0,0,0,0-4.5l-.26-1Z"/></g><path d="M8,15a2.85,2.85,0,0,1,0-.29L2.19,13a10.76,10.76,0,0,0,0,4L8,15.29A2.85,2.85,0,0,1,8,15Z" style="fill:#fff"/><g style="opacity:0.8"><path d="M2.19,13,8,14.71A2.85,2.85,0,0,0,8,15a2.85,2.85,0,0,0,0,.29L2.19,17a10.76,10.76,0,0,1,0-4m-.7-1.25-.26,1a11.36,11.36,0,0,0,0,4.5l.26,1,1-.29,5.83-1.72L9.08,16,9,15.21A1.1,1.1,0,0,1,9,15v0H9a1.1,1.1,0,0,1,0-.18L9.08,14l-.77-.22L2.48,12l-1-.29Z"/></g><path d="M9.42,12,6.48,6.65A10.58,10.58,0,0,0,3.65,9.48L9,12.42A5,5,0,0,1,9.42,12Z" style="fill:#fff"/><g style="opacity:0.8"><path d="M6.48,6.65,9.42,12a5,5,0,0,0-.46.46L3.65,9.48A10.58,10.58,0,0,1,6.48,6.65m.38-1.38L6,5.79A11.46,11.46,0,0,0,2.79,9l-.52.89.9.5L8.48,13.3l.71.4.53-.63c.11-.12.23-.24.35-.35l.63-.53-.4-.71L7.36,6.17l-.5-.9Z"/></g><circle cx="12" cy="15" r="1" style="fill:#fff"/><g style="opacity:0.8"><path d="M12,14a1,1,0,1,1-1,1,1,1,0,0,1,1-1m0-1a2,2,0,1,0,2,2,2,2,0,0,0-2-2Z"/></g></svg>