<svg xmlns="http://www.w3.org/2000/svg" viewBox="0 0 26 26" height="26" width="26"><title>FmIcnFillLightPoiTicket.svg</title><rect fill="none" x="0" y="0" width="26" height="26"></rect><path fill="rgba(0,0,0,0.8)" transform="translate(1 1)" d="M19,7H17V5L14,2,2,14l3,3H7v2l3,3L22,10ZM11,17,7,13l6-6,4,4Zm2-8.5L15.5,11,11,15.5,8.5,13Z" style="stroke-linejoin:round;stroke-miterlimit:4;" stroke="rgba(0,0,0,0.8)" stroke-width="2"></path><path fill="#ffffff" transform="translate(1 1)" d="M19,7H17V5L14,2,2,14l3,3H7v2l3,3L22,10ZM11,17,7,13l6-6,4,4Zm2-8.5L15.5,11,11,15.5,8.5,13Z"></path></svg>