<svg xmlns="http://www.w3.org/2000/svg" viewBox="0 0 30 30" height="30" width="30"><title>FmIcnFillLightLiftChairCover.svg</title><rect fill="none" x="0" y="0" width="30" height="30"></rect><path fill="rgba(0,0,0,0.8)" transform="translate(3 3)" d="M12.22,10,13,13h3l-.64,3.92-2.11.53L13.65,15H11.28L10,10Zm.28-2.5A1.5,1.5,0,1,0,11,9,1.5,1.5,0,0,0,12.5,7.5Zm-2.27,7.42-.28-1.09C8.72,13.48,7,12.48,7,9.5,7,5.13,10.59,5,11,5h1.5V2h-1V4H11c-.2,0-5,.06-5,5.5C6,13,8.12,14.56,10.23,14.92Zm11.06.47-1.4,1.43L4,20.78l.24,1,16.14-4L22,16.08ZM17,9.5a5.86,5.86,0,0,1-.19,1.5h1A7.08,7.08,0,0,0,18,9.5C18,6.35,16.39,5,15,4.43V5.53C16,6.08,17,7.2,17,9.5Z" style="stroke-linejoin:round;stroke-miterlimit:4;" stroke="rgba(0,0,0,0.8)" stroke-width="2"></path><path fill="#ffffff" transform="translate(3 3)" d="M12.22,10,13,13h3l-.64,3.92-2.11.53L13.65,15H11.28L10,10Zm.28-2.5A1.5,1.5,0,1,0,11,9,1.5,1.5,0,0,0,12.5,7.5Zm-2.27,7.42-.28-1.09C8.72,13.48,7,12.48,7,9.5,7,5.13,10.59,5,11,5h1.5V2h-1V4H11c-.2,0-5,.06-5,5.5C6,13,8.12,14.56,10.23,14.92Zm11.06.47-1.4,1.43L4,20.78l.24,1,16.14-4L22,16.08ZM17,9.5a5.86,5.86,0,0,1-.19,1.5h1A7.08,7.08,0,0,0,18,9.5C18,6.35,16.39,5,15,4.43V5.53C16,6.08,17,7.2,17,9.5Z"></path></svg>