<svg xmlns="http://www.w3.org/2000/svg" viewBox="0 0 26 26" height="26" width="26"><title>FmIcnFillLightPoiPicnic.svg</title><rect fill="none" x="0" y="0" width="26" height="26"></rect><path fill="rgba(0,0,0,0.8)" transform="translate(1 1)" d="M16,14h2V12H6v2H8l-.83,2H3v3H6l-.83,2H7l.83-2h8.41l.83,2H18.9l-.83-2H21V16H16.83ZM9,16l.83-2h4.34L15,16ZM18.5,3h-1V2h1Zm-1,6h1v1h-1ZM22,5.5v1H21v-1Zm-7,1H14v-1h1Zm.53-2.27-.71-.71.71-.71.71.71Zm4.95,3.54.71.71-.71.71-.71-.71Zm0-3.54-.71-.71.71-.71.71.71ZM15.53,7.77l.71.71-.71.71-.71-.71ZM16,6a2,2,0,1,1,2,2A2,2,0,0,1,16,6Z" style="stroke-linejoin:round;stroke-miterlimit:4;" stroke="rgba(0,0,0,0.8)" stroke-width="2"></path><path fill="#ffffff" transform="translate(1 1)" d="M16,14h2V12H6v2H8l-.83,2H3v3H6l-.83,2H7l.83-2h8.41l.83,2H18.9l-.83-2H21V16H16.83ZM9,16l.83-2h4.34L15,16ZM18.5,3h-1V2h1Zm-1,6h1v1h-1ZM22,5.5v1H21v-1Zm-7,1H14v-1h1Zm.53-2.27-.71-.71.71-.71.71.71Zm4.95,3.54.71.71-.71.71-.71-.71Zm0-3.54-.71-.71.71-.71.71.71ZM15.53,7.77l.71.71-.71.71-.71-.71ZM16,6a2,2,0,1,1,2,2A2,2,0,0,1,16,6Z"></path></svg>