<svg xmlns="http://www.w3.org/2000/svg" viewBox="0 0 26 26" height="26" width="26"><title>FmIcnFillLightPoiSkierCross.svg</title><rect fill="none" x="0" y="0" width="26" height="26"></rect><path fill="rgba(0,0,0,0.8)" transform="translate(1 1)" d="M22,7.5A1.5,1.5,0,1,1,20.5,6,1.5,1.5,0,0,1,22,7.5ZM18,8,17,7a12.36,12.36,0,0,0-6,1l-.5,2A5.83,5.83,0,0,1,13,13.25L7.5,14.5,10,16l4-1,1-1c.21-1.64-.8-3.22-2-4.5A6.24,6.24,0,0,1,16,9a5,5,0,0,0,2,3H15.67A5.56,5.56,0,0,1,16,13h5V11A3,3,0,0,1,18,8ZM6,13H9.59l2-.46a5.34,5.34,0,0,0-.38-.54H6Zm-3.73-.91-.54.84L15.85,22H18V21H16.13ZM12,4a1,1,0,1,0-1-1A1,1,0,0,0,12,4ZM6.56,7.61,9,7A3.32,3.32,0,0,0,7.13,4,2.29,2.29,0,0,1,9,3.72,3,3,0,0,0,12,6V5a2,2,0,0,1-2-2,4.08,4.08,0,0,0-4,.5v1c.47.19,1.68.77,1.94,1.72l-2.5.64ZM9,11V10H8.31l-6-4.06-.56.83L8,11Z" style="stroke-linejoin:round;stroke-miterlimit:4;" stroke="rgba(0,0,0,0.8)" stroke-width="2"></path><path fill="#ffffff" transform="translate(1 1)" d="M22,7.5A1.5,1.5,0,1,1,20.5,6,1.5,1.5,0,0,1,22,7.5ZM18,8,17,7a12.36,12.36,0,0,0-6,1l-.5,2A5.83,5.83,0,0,1,13,13.25L7.5,14.5,10,16l4-1,1-1c.21-1.64-.8-3.22-2-4.5A6.24,6.24,0,0,1,16,9a5,5,0,0,0,2,3H15.67A5.56,5.56,0,0,1,16,13h5V11A3,3,0,0,1,18,8ZM6,13H9.59l2-.46a5.34,5.34,0,0,0-.38-.54H6Zm-3.73-.91-.54.84L15.85,22H18V21H16.13ZM12,4a1,1,0,1,0-1-1A1,1,0,0,0,12,4ZM6.56,7.61,9,7A3.32,3.32,0,0,0,7.13,4,2.29,2.29,0,0,1,9,3.72,3,3,0,0,0,12,6V5a2,2,0,0,1-2-2,4.08,4.08,0,0,0-4,.5v1c.47.19,1.68.77,1.94,1.72l-2.5.64ZM9,11V10H8.31l-6-4.06-.56.83L8,11Z"></path></svg>