<svg xmlns="http://www.w3.org/2000/svg" viewBox="0 0 30 30" height="30" width="30"><title>FmIcnFillLightLiftCablecar.svg</title><rect fill="none" x="0" y="0" width="30" height="30"></rect><path fill="rgba(0,0,0,0.8)" transform="translate(3 3)" d="M20,2.9V1.84L4,7.73V8.8L11.5,6V9H9v2H4v9H20V11H15V9H12.5V5.66ZM11.5,15H5V12h6.5ZM19,12v3H12.5V12Z" style="stroke-linejoin:round;stroke-miterlimit:4;" stroke="rgba(0,0,0,0.8)" stroke-width="2"></path><path fill="#ffffff" transform="translate(3 3)" d="M20,2.9V1.84L4,7.73V8.8L11.5,6V9H9v2H4v9H20V11H15V9H12.5V5.66ZM11.5,15H5V12h6.5ZM19,12v3H12.5V12Z"></path></svg>