<svg xmlns="http://www.w3.org/2000/svg" viewBox="0 0 26 26" height="26" width="26"><title>FmIcnFillLightPoiRestaurantStar.svg</title><rect fill="none" x="0" y="0" width="26" height="26"></rect><path fill="rgba(0,0,0,0.8)" transform="translate(1 1)" d="M9.43,12,7.31,13.5,8.19,16,6,14.45,3.81,16l.89-2.51L2.57,12h2.6L6,9.42,6.83,12ZM13,7H12V3H11V7H10V3H9V7.51A2.49,2.49,0,0,0,11,10v0L10,21h3L12,10V9.95A2.5,2.5,0,0,0,14,7.5V3H13Zm5.5-4A2.5,2.5,0,0,0,16,5.5V13h2v8h2V3Z" style="stroke-linejoin:round;stroke-miterlimit:4;" stroke="rgba(0,0,0,0.8)" stroke-width="2"></path><path fill="#ffffff" transform="translate(1 1)" d="M9.43,12,7.31,13.5,8.19,16,6,14.45,3.81,16l.89-2.51L2.57,12h2.6L6,9.42,6.83,12ZM13,7H12V3H11V7H10V3H9V7.51A2.49,2.49,0,0,0,11,10v0L10,21h3L12,10V9.95A2.5,2.5,0,0,0,14,7.5V3H13Zm5.5-4A2.5,2.5,0,0,0,16,5.5V13h2v8h2V3Z"></path></svg>