<svg xmlns="http://www.w3.org/2000/svg" viewBox="0 0 26 26" height="26" width="26"><title>FmIcnFillLightPoiSlalom.svg</title><rect fill="none" x="0" y="0" width="26" height="26"></rect><path fill="rgba(0,0,0,0.8)" transform="translate(1 1)" d="M8,8H5v5H4V3H5V5H8V3H9V13H8Zm11,3v2H16V11H15V21h1V16h3v5h1V11ZM16,3a11.72,11.72,0,0,1-3.79,8.64A13.62,13.62,0,0,0,8,21H9a11.83,11.83,0,0,1,3.92-8.65A13.51,13.51,0,0,0,17,3Z" style="stroke-linejoin:round;stroke-miterlimit:4;" stroke="rgba(0,0,0,0.8)" stroke-width="2"></path><path fill="#ffffff" transform="translate(1 1)" d="M8,8H5v5H4V3H5V5H8V3H9V13H8Zm11,3v2H16V11H15V21h1V16h3v5h1V11ZM16,3a11.72,11.72,0,0,1-3.79,8.64A13.62,13.62,0,0,0,8,21H9a11.83,11.83,0,0,1,3.92-8.65A13.51,13.51,0,0,0,17,3Z"></path></svg>