<svg xmlns="http://www.w3.org/2000/svg" width="12" height="12" viewBox="0 0 12 12"><title>FmIcnFillPoiBeach</title><path d="M0,0H12V12H0Z" style="fill:none"/><path d="M11.41,9,7.91,5.5,8,5.41,8.41,5l2-2-.7-.71A5.76,5.76,0,0,0,5.85.85,4.88,4.88,0,0,0,2.5,2.13a1.92,1.92,0,0,0-.21.16h0C-.17,4.77,1,8.38,2.29,9.71l.71.7,2-2L5.41,8l.09-.09L9,11.41Z" style="fill:#332400"/><path d="M3,9,4,8C3,7,1.67,4.33,3,3,1,5,2,8,3,9Z" style="fill:#ffecbf"/><path d="M8,4,9,3C8,2,5,1,3,3,4.33,1.67,7,3,8,4Z" style="fill:#ffecbf"/><path d="M5,7,7,5C6,4,3.67,2.33,3,3S4,6,5,7Z" style="fill:#ffecbf"/><rect x="7.54" y="6.48" width="1.41" height="3.54" transform="translate(-3.42 8.25) rotate(-45)" style="fill:#ffecbf"/></svg>