<svg xmlns="http://www.w3.org/2000/svg" width="24" height="24" viewBox="0 0 24 24"><title>FmIcnFillPoiDrinkingWater</title><rect width="24" height="24" style="fill:none"/><path d="M12,4S6,10,6,14a6,6,0,0,0,12,0C18,10,12,4,12,4ZM10,17c-1,0-2-1-2-3a4.38,4.38,0,0,1,1-3c0,3,2,4,2,5A1,1,0,0,1,10,17Z" style="fill:#fff"/><g style="opacity:0.8"><path d="M12,4s6,6,6,10A6,6,0,0,1,6,14c0-4,6-10,6-10M10,17a1,1,0,0,0,1-1c0-1-2-2-2-5a4.38,4.38,0,0,0-1,3c0,2,1,3,2,3M12,2.59l-.71.7C10.65,3.94,5,9.71,5,14a7,7,0,0,0,14,0c0-4.29-5.65-10.06-6.29-10.71L12,2.59ZM10,16c-.4,0-.81-.5-.94-1.39.19.3.38.56.55.78A6.16,6.16,0,0,1,10,16Z"/></g></svg>