<svg xmlns="http://www.w3.org/2000/svg" viewBox="0 0 30 30" height="30" width="30"><title>FmIcnFillLightLiftChair.svg</title><rect fill="none" x="0" y="0" width="30" height="30"></rect><path fill="rgba(0,0,0,0.8)" transform="translate(3 3)" d="M11,9a1.5,1.5,0,1,1,1.5-1.5A1.5,1.5,0,0,1,11,9Zm-1,1,1.28,5h2.37l-.41,2.44,2.11-.53L16,13H13l-.78-3Zm11.29,5.38-1.4,1.43L4,20.78l.24,1,16.14-4L22,16.08Zm-11.06-.47-.28-1.09C8.72,13.48,7,12.48,7,9.5,7,5.13,10.59,5,11,5h1.5V2h-1V4H11c-.2,0-5,.06-5,5.5C6,13,8.12,14.56,10.23,14.92Z" style="stroke-linejoin:round;stroke-miterlimit:4;" stroke="rgba(0,0,0,0.8)" stroke-width="2"></path><path fill="#ffffff" transform="translate(3 3)" d="M11,9a1.5,1.5,0,1,1,1.5-1.5A1.5,1.5,0,0,1,11,9Zm-1,1,1.28,5h2.37l-.41,2.44,2.11-.53L16,13H13l-.78-3Zm11.29,5.38-1.4,1.43L4,20.78l.24,1,16.14-4L22,16.08Zm-11.06-.47-.28-1.09C8.72,13.48,7,12.48,7,9.5,7,5.13,10.59,5,11,5h1.5V2h-1V4H11c-.2,0-5,.06-5,5.5C6,13,8.12,14.56,10.23,14.92Z"></path></svg>