<svg xmlns="http://www.w3.org/2000/svg" viewBox="0 0 26 26" height="26" width="26"><title>FmIcnFillLightPoiPicnicIndoors.svg</title><rect fill="none" x="0" y="0" width="26" height="26"></rect><path fill="rgba(0,0,0,0.8)" transform="translate(1 1)" d="M16,14h2V12H6v2H8l-.83,2H3v3H6l-.83,2H7l.83-2h8.41l.83,2H18.9l-.83-2H21V16H16.83ZM9,16l.83-2h4.34L15,16ZM21,9v1L12,5.14,3,10V9l9-5Z" style="stroke-linejoin:round;stroke-miterlimit:4;" stroke="rgba(0,0,0,0.8)" stroke-width="2"></path><path fill="#ffffff" transform="translate(1 1)" d="M16,14h2V12H6v2H8l-.83,2H3v3H6l-.83,2H7l.83-2h8.41l.83,2H18.9l-.83-2H21V16H16.83ZM9,16l.83-2h4.34L15,16ZM21,9v1L12,5.14,3,10V9l9-5Z"></path></svg>