<svg xmlns="http://www.w3.org/2000/svg" viewBox="0 0 26 26" height="26" width="26"><title>FmIcnFillLightPoiCar.svg</title><rect fill="none" x="0" y="0" width="26" height="26"></rect><path fill="rgba(0,0,0,0.8)" transform="translate(1 1)" d="M17,6H7L4,12v7H7V17H17v2h3V12ZM7,15a1,1,0,1,1,1-1A1,1,0,0,1,7,15Zm10,0a1,1,0,1,1,1-1A1,1,0,0,1,17,15ZM5.5,11l2-4h9l2,4Z" style="stroke-linejoin:round;stroke-miterlimit:4;" stroke="rgba(0,0,0,0.8)" stroke-width="2"></path><path fill="#ffffff" transform="translate(1 1)" d="M17,6H7L4,12v7H7V17H17v2h3V12ZM7,15a1,1,0,1,1,1-1A1,1,0,0,1,7,15Zm10,0a1,1,0,1,1,1-1A1,1,0,0,1,17,15ZM5.5,11l2-4h9l2,4Z"></path></svg>