<svg xmlns="http://www.w3.org/2000/svg" width="38" height="32" viewBox="0 0 38 32"><title>FmIcnMapHikeDifficult</title><circle cx="16" cy="16" r="15" style="fill:#0a6151"/><path d="M16,2A14,14,0,1,1,2,16,14,14,0,0,1,16,2m0-2A16,16,0,1,0,32,16,16,16,0,0,0,16,0Z" style="fill:#1bf5cd"/><path d="M12,11a7.24,7.24,0,0,0-2,4.5C10,17,13.3,17,13.3,17l.8-5Zm4-3a1,1,0,1,1-1,1,1,1,0,0,1,.89-1H16m0-1a2,2,0,1,0,2,2A2,2,0,0,0,16,7Zm7,15.8-1.9-9.4a3.07,3.07,0,0,1-1,.1H20a3.21,3.21,0,0,1-3-1.7,3.78,3.78,0,0,1-1,.2,3.12,3.12,0,0,1-1-.2h0L14,20l-2.5,4,2.8-.5,1.8-3,.3-2.3,1.2.8.5,4,2-.4-1-4.8-2.5-1.7.2-1.6a5.78,5.78,0,0,0,3.3,1h.5L22,23Z" style="fill:#c7fbf1"/><rect x="4" y="3" width="24" height="24" style="fill:none"/><rect x="25" y="20" width="12" height="12" style="fill:none"/><circle cx="32.5" cy="26.5" r="5" style="fill:#ff6f00"/><path d="M32.5,22A4.5,4.5,0,1,1,28,26.5,4.49,4.49,0,0,1,32.5,22m0-1A5.5,5.5,0,1,0,38,26.5,5.51,5.51,0,0,0,32.5,21Z" style="fill:#1bf5cd"/></svg>