<svg xmlns="http://www.w3.org/2000/svg" viewBox="0 0 30 30" height="30" width="30"><title>FmIcnFillLightLiftGondola.svg</title><rect fill="none" x="0" y="0" width="30" height="30"></rect><path fill="rgba(0,0,0,0.8)" transform="translate(3 3)" d="M20,2.9V1.84L4,7.73V8.8L11.5,6V8H10v2H8a6.91,6.91,0,0,0-2,5,8.51,8.51,0,0,0,2,5h8a8.51,8.51,0,0,0,2-5,6.91,6.91,0,0,0-2-5H14V8H12.5V5.66ZM9.5,15a.5.5,0,1,1,.5-.5A.5.5,0,0,1,9.5,15Zm5-1a.5.5,0,1,1-.5.5A.5.5,0,0,1,14.5,14Zm-2-3v8h-1V11Z" style="stroke-linejoin:round;stroke-miterlimit:4;" stroke="rgba(0,0,0,0.8)" stroke-width="2"></path><path fill="#ffffff" transform="translate(3 3)" d="M20,2.9V1.84L4,7.73V8.8L11.5,6V8H10v2H8a6.91,6.91,0,0,0-2,5,8.51,8.51,0,0,0,2,5h8a8.51,8.51,0,0,0,2-5,6.91,6.91,0,0,0-2-5H14V8H12.5V5.66ZM9.5,15a.5.5,0,1,1,.5-.5A.5.5,0,0,1,9.5,15Zm5-1a.5.5,0,1,1-.5.5A.5.5,0,0,1,14.5,14Zm-2-3v8h-1V11Z"></path></svg>