<svg xmlns="http://www.w3.org/2000/svg" width="24" height="24" viewBox="0 0 24 24"><title>FmIcnMapRouteArrowRock</title><polygon points="5.25 18.54 12.22 12 5.25 5.46 8.32 2.17 18.8 12 8.32 21.82 5.25 18.54" style="fill:#ff73b1"/><path d="M8.37,3.59l9,8.41-9,8.41L6.66,18.59l7-6.59-7-6.59L8.37,3.59M8.28.76,6.91,2.22,5.2,4,3.83,5.5,5.29,6.87,10.76,12,5.29,17.13,3.83,18.5,5.2,20l1.71,1.82,1.37,1.46,1.46-1.37,9-8.41L20.27,12l-1.56-1.46-9-8.41L8.28.76Z" style="fill:#651c3d"/><rect width="24" height="24" style="fill:none"/></svg>