<svg xmlns="http://www.w3.org/2000/svg" width="24" height="24" viewBox="0 0 24 24"><title>FmIcnFillLightDifficultyUSExtreme</title><rect width="24" height="24" style="fill:none"/><path d="M19.46,21,16,15.8,12.54,21H1V3H12.54L16,8.2,19.46,3H23V6.3L19.2,12,23,17.7V21ZM9.83,16l1.1-1.5H6V16ZM11,9.5v4.9L12.78,12,10.13,8H6V9.5Z" style="fill:#fad0cc"/><path d="M22,4V6l-4,6,4,6v2H20l-4-6-4,6H2V4H12l4,6,4-6h2M5,10.5h5v3H5V17h5.33L14,12,10.67,7H5v3.5M24,2H18.93l-.59.89L16,6.39l-2.34-3.5L13.07,2H0V22H13.07l.59-.89L16,17.61l2.34,3.5.59.89H24V17.39l-.34-.5L20.4,12l3.26-4.89.34-.5V2Z" style="fill:#a43024"/></svg>