<svg xmlns="http://www.w3.org/2000/svg" viewBox="0 0 26 26" height="26" width="26"><title>FmIcnFillLightPoiPhotos.svg</title><rect fill="none" x="0" y="0" width="26" height="26"></rect><path fill="rgba(0,0,0,0.8)" transform="translate(1 1)" d="M6,5V18H19V5Zm3.5,5A1.5,1.5,0,1,1,11,8.5,1.5,1.5,0,0,1,9.5,10Zm.5,6,3.5-6L17,16ZM5,19H16v1H4V6H5Z" style="stroke-linejoin:round;stroke-miterlimit:4;" stroke="rgba(0,0,0,0.8)" stroke-width="2"></path><path fill="#ffffff" transform="translate(1 1)" d="M6,5V18H19V5Zm3.5,5A1.5,1.5,0,1,1,11,8.5,1.5,1.5,0,0,1,9.5,10Zm.5,6,3.5-6L17,16ZM5,19H16v1H4V6H5Z"></path></svg>