<svg xmlns="http://www.w3.org/2000/svg" viewBox="0 0 26 26" height="26" width="26"><title>FmIcnFillLightPoiLuggageStorage.svg</title><rect fill="none" x="0" y="0" width="26" height="26"></rect><path fill="rgba(0,0,0,0.8)" transform="translate(1 1)" d="M11,10h2v1H11Zm9-2V20H4V8l8-4Zm-3,4a1,1,0,0,0-1-1H14V10a1,1,0,0,0-1-1H11a1,1,0,0,0-1,1v1H8a1,1,0,0,0-1,1v5H17Z" style="stroke-linejoin:round;stroke-miterlimit:4;" stroke="rgba(0,0,0,0.8)" stroke-width="2"></path><path fill="#ffffff" transform="translate(1 1)" d="M11,10h2v1H11Zm9-2V20H4V8l8-4Zm-3,4a1,1,0,0,0-1-1H14V10a1,1,0,0,0-1-1H11a1,1,0,0,0-1,1v1H8a1,1,0,0,0-1,1v5H17Z"></path></svg>