<svg xmlns="http://www.w3.org/2000/svg" viewBox="0 0 26 26" height="26" width="26"><title>FmIcnFillLightPoiHelicopter.svg</title><rect fill="none" x="0" y="0" width="26" height="26"></rect><path fill="rgba(0,0,0,0.8)" transform="translate(1 1)" d="M23,13,22,8H21v3l-6.57-.82A6,6,0,0,0,10,7.09V6h7V5H2V6H9V7H9c-3.34,0-8,4-8,7s4.61,3,8,3c3.15,0,5.74-1.3,6-4h8ZM7.92,15C6.22,15,3,15.39,3,13.45S6.22,9,7.92,9,10,10.57,10,12.5,9.62,15,7.92,15ZM3,18H14v1H3a2,2,0,0,1-2-2H2A1,1,0,0,0,3,18Z" style="stroke-linejoin:round;stroke-miterlimit:4;" stroke="rgba(0,0,0,0.8)" stroke-width="2"></path><path fill="#ffffff" transform="translate(1 1)" d="M23,13,22,8H21v3l-6.57-.82A6,6,0,0,0,10,7.09V6h7V5H2V6H9V7H9c-3.34,0-8,4-8,7s4.61,3,8,3c3.15,0,5.74-1.3,6-4h8ZM7.92,15C6.22,15,3,15.39,3,13.45S6.22,9,7.92,9,10,10.57,10,12.5,9.62,15,7.92,15ZM3,18H14v1H3a2,2,0,0,1-2-2H2A1,1,0,0,0,3,18Z"></path></svg>