<svg xmlns="http://www.w3.org/2000/svg" viewBox="0 0 30 30" height="30" width="30"><title>FmIcnFillLightLiftFunicularrail.svg</title><rect fill="none" x="0" y="0" width="30" height="30"></rect><path fill="rgba(0,0,0,0.8)" transform="translate(3 3)" d="M4,20l16-6v1L4,21ZM20,7v6L4,19V12.19A3,3,0,0,1,5.95,9.39L17.3,5.13A2,2,0,0,1,20,7ZM9,10.38,6,11.5V15l3-1.12ZM14,8.5,10,10v3.5L14,12ZM18,7,15,8.13v3.5l3-1.12Z" style="stroke-linejoin:round;stroke-miterlimit:4;" stroke="rgba(0,0,0,0.8)" stroke-width="2"></path><path fill="#ffffff" transform="translate(3 3)" d="M4,20l16-6v1L4,21ZM20,7v6L4,19V12.19A3,3,0,0,1,5.95,9.39L17.3,5.13A2,2,0,0,1,20,7ZM9,10.38,6,11.5V15l3-1.12ZM14,8.5,10,10v3.5L14,12ZM18,7,15,8.13v3.5l3-1.12Z"></path></svg>