<svg xmlns="http://www.w3.org/2000/svg" width="24" height="24" viewBox="0 0 24 24"><title>ResortDiamondDoubleOrange</title><rect width="24" height="24" style="fill:none"/><polygon points="1.75 12 9 2.33 16.25 12 9 21.67 1.75 12" style="fill:#ffdbbf"/><path d="M9,4l6,8L9,20,3,12,9,4M9,.67,7.4,2.8l-6,8L.5,12l.9,1.2,6,8L9,23.33l1.6-2.13,6-8,.9-1.2-.9-1.2-6-8L9,.67Z" style="fill:#b24d00"/><polygon points="7.75 12 15 2.33 22.25 12 15 21.67 7.75 12" style="fill:#ffdbbf"/><path d="M15,4l6,8-6,8L9,12l6-8M15,.67,13.4,2.8l-6,8L6.5,12l.9,1.2,6,8L15,23.33l1.6-2.13,6-8,.9-1.2-.9-1.2-6-8L15,.67Z" style="fill:#b24d00"/></svg>